<svg viewBox="0 0 23 18" fill="none" xmlns="http://www.w3.org/2000/svg">
<path d="M22.1186 7.07788C21.6119 6.72633 20.4508 6.5945 19.5431 6.77027C19.4375 5.8914 18.952 5.12239 18.1075 4.44126L17.622 4.08971L17.2842 4.59507C16.862 5.25422 16.6509 6.17703 16.7142 7.0559C16.7353 7.36351 16.8409 7.9128 17.1575 8.39618C16.862 8.57196 16.2498 8.79167 15.4476 8.79167H0.184501L0.14228 8.96745C-0.00549549 9.84632 -0.00549553 12.5928 1.72559 14.7021C3.03445 16.306 4.97664 17.119 7.53104 17.119C13.0621 17.119 17.1575 14.4604 19.0786 9.64857C19.8386 9.67054 21.4641 9.64857 22.2875 8.00069C22.3086 7.95675 22.3508 7.86886 22.4986 7.53928L22.583 7.36351L22.1186 7.07788ZM12.3865 0.881836H10.0643V3.07901H12.3865V0.881836ZM12.3865 3.51845H10.0643V5.71563H12.3865V3.51845ZM9.64212 3.51845H7.31993V5.71563H9.64212V3.51845ZM6.89772 3.51845H4.57554V5.71563H6.89772V3.51845ZM4.15332 6.15506H1.83114V8.35224H4.15332V6.15506ZM6.89772 6.15506H4.57554V8.35224H6.89772V6.15506ZM9.64212 6.15506H7.31993V8.35224H9.64212V6.15506ZM12.3865 6.15506H10.0643V8.35224H12.3865V6.15506ZM15.1309 6.15506H12.8087V8.35224H15.1309V6.15506Z" fill="#2396ED"/>
</svg>
